<svg width="7474" height="803" viewBox="0 0 7474 803" fill="none" xmlns="http://www.w3.org/2000/svg">
<path d="M530.981 758.491C532.31 760.034 534.246 760.922 536.283 760.922H658.821L317.051 347.144L638.4 8.59792H518.837C516.946 8.59792 515.135 9.3631 513.817 10.7193L109.192 427.058C108.566 427.701 107.475 427.259 107.475 426.361V13.5979C107.475 10.8365 105.236 8.59792 102.475 8.59792H0V755.922C0 758.683 2.23858 760.922 5 760.922H107.475V570.489C107.475 567.864 108.507 565.344 110.349 563.473L245.043 426.675L530.981 758.491Z" fill="white"/>
<path d="M948.273 755.922C948.273 758.683 950.512 760.922 953.273 760.922H1055.75V13.5979C1055.75 10.8365 1053.51 8.59792 1050.75 8.59792H948.273V755.922Z" fill="white"/>
<path d="M1701.06 769.52C1818.2 769.52 1919.23 728.679 1988.01 651.297L1921.79 587.108C1919.79 585.171 1916.59 585.249 1914.64 587.24C1857.27 646.003 1787.52 673.867 1706.43 673.867C1536.62 673.867 1410.87 551.346 1410.87 384.76C1410.87 218.174 1536.62 95.6525 1706.43 95.6525C1787.52 95.6525 1857.26 122.485 1914.64 181.205C1916.59 183.196 1919.79 183.274 1921.79 181.337L1988.01 117.147C1919.23 39.7656 1818.2 0 1702.13 0C1473.21 0 1303.4 162.287 1303.4 384.76C1303.4 607.233 1473.21 769.52 1701.06 769.52Z" fill="white"/>
<path d="M2801.15 757.45C2803.05 759.654 2805.82 760.922 2808.73 760.922H2929.89L2588.12 347.144L2909.47 8.59792H2791.18C2788.47 8.59792 2785.89 9.69104 2784 11.6284L2380.26 427.058C2379.64 427.701 2378.55 427.259 2378.55 426.361V13.5979C2378.55 10.8365 2376.31 8.59792 2373.55 8.59792H2271.07V755.922C2271.07 758.683 2273.31 760.922 2276.07 760.922H2378.55V570.489C2378.55 567.864 2379.58 565.344 2381.42 563.473L2516.11 426.675L2801.15 757.45Z" fill="white"/>
<path d="M3468.91 769.52C3667.74 769.52 3760.17 670.643 3760.17 555.645C3760.17 279.434 3304.47 394.433 3304.47 210.651C3304.47 145.091 3359.29 91.3535 3487.18 91.3535C3553.81 91.3535 3627.97 110.699 3693.53 152.614L3727.46 70.3656C3728.36 68.1885 3727.63 65.6809 3725.67 64.3731C3663.44 22.816 3573.75 0 3487.18 0C3289.43 0 3199.15 98.8768 3199.15 214.95C3199.15 494.384 3654.84 378.311 3654.84 562.093C3654.84 627.653 3598.95 678.166 3468.91 678.166C3372.18 678.166 3276.53 641.625 3220.64 591.112L3182.45 671.63C3181.51 673.601 3181.95 675.943 3183.57 677.4C3244.39 731.96 3355.61 769.52 3468.91 769.52Z" fill="white"/>
<path d="M4293.29 755.922C4293.29 758.683 4295.53 760.922 4298.29 760.922H4399.69V102.101H4657.63V13.5979C4657.63 10.8365 4655.39 8.59792 4652.63 8.59792H4035.35V97.101C4035.35 99.8625 4037.59 102.101 4040.35 102.101H4293.29V755.922Z" fill="white"/>
<path d="M5520.85 760.922H5628.7C5630.97 760.922 5632.42 758.51 5631.35 756.512L5235.95 13.6493C5234.81 11.5136 5231.75 11.5328 5230.64 13.6826L4847.09 756.545C4846.06 758.542 4847.51 760.922 4849.76 760.922H4955.53H5520.85Z" fill="#FF8A00"/>
<path d="M6572.56 760.922L6394.15 508.356C6499.48 470.74 6559.66 386.909 6559.66 270.836C6559.66 107.475 6441.44 8.59792 6245.84 8.59792H5952.43V755.922C5952.43 758.683 5954.67 760.922 5957.43 760.922H6059.91V537C6059.91 534.239 6062.14 532 6064.91 532H6245.84C6261.96 532 6278.08 530.926 6293.13 529.851L6452.43 756.669C6454.3 759.335 6457.35 760.922 6460.61 760.922H6572.56ZM6242.61 440.647H6059.91V107.101C6059.91 104.34 6062.14 102.101 6064.91 102.101H6242.61C6380.18 102.101 6452.19 163.362 6452.19 270.836C6452.19 378.311 6380.18 440.647 6242.61 440.647Z" fill="white"/>
<path d="M7109.41 755.922C7109.41 758.683 7111.65 760.922 7114.41 760.922H7215.81V102.101H7473.75V13.5979C7473.75 10.8365 7471.51 8.59792 7468.75 8.59792H6851.47V97.101C6851.47 99.8625 6853.71 102.101 6856.47 102.101H7109.41V755.922Z" fill="white"/>
<path fill-rule="evenodd" clip-rule="evenodd" d="M5324.19 556.359C5324.17 559.357 5324.15 562.355 5324.15 565.331C5311.59 551.83 5295.96 541.427 5278.54 534.968C5277.04 539.891 5275.42 544.947 5273.79 550.003L5273.79 550.016L5265.9 550.18C5270.39 709.714 5338.26 742.06 5447.04 793.912C5453.19 796.84 5459.46 799.83 5465.86 802.909L5035.96 795.851C5172.93 763.826 5228.3 710.957 5225.28 551.022L5215.96 551.215C5214.87 547.619 5213.24 542.026 5212.84 540.428C5212.71 539.923 5212.55 539.431 5212.4 538.949C5212.07 537.904 5211.75 536.902 5211.75 535.9C5195.47 541.134 5181.4 551.475 5171.71 565.331C5171.71 558.142 5171.44 551.245 5171.19 544.716C5169.96 512.789 5169.07 489.692 5201.3 484.495C5191.25 413.115 5204.28 357.715 5247.04 322.424C5288.85 359.712 5302.56 414.047 5290.75 484.096C5324.67 485.324 5324.43 520.863 5324.19 556.359Z" fill="white"/>
</svg>
